<mxfile host="app.diagrams.net" modified="2021-03-12T08:01:55.739Z" agent="5.0 (Macintosh; Intel Mac OS X 11_2_1) AppleWebKit/537.36 (KHTML, like Gecko) Chrome/88.0.4324.192 Safari/537.36" etag="eBV6VMbnEMftt6piSeYY" version="14.4.7" type="github">
  <diagram id="LrhNRJhGLsuiSvbLeXJM" name="Page-1">
    <mxGraphModel dx="1426" dy="769" grid="1" gridSize="10" guides="1" tooltips="1" connect="1" arrows="1" fold="1" page="1" pageScale="1" pageWidth="2000" pageHeight="2000" math="0" shadow="0">
      <root>
        <mxCell id="0" />
        <mxCell id="1" parent="0" />
        <mxCell id="5LjGhmarWJCnvKHFiit6-1" value="" style="endArrow=none;dashed=1;html=1;" edge="1" parent="1">
          <mxGeometry width="50" height="50" relative="1" as="geometry">
            <mxPoint x="110" y="260" as="sourcePoint" />
            <mxPoint x="640" y="260" as="targetPoint" />
          </mxGeometry>
        </mxCell>
        <mxCell id="5LjGhmarWJCnvKHFiit6-2" value="" style="endArrow=none;dashed=1;html=1;" edge="1" parent="1">
          <mxGeometry width="50" height="50" relative="1" as="geometry">
            <mxPoint x="110" y="430" as="sourcePoint" />
            <mxPoint x="640" y="430" as="targetPoint" />
          </mxGeometry>
        </mxCell>
        <mxCell id="5LjGhmarWJCnvKHFiit6-34" style="edgeStyle=orthogonalEdgeStyle;rounded=0;orthogonalLoop=1;jettySize=auto;html=1;exitX=0.5;exitY=1;exitDx=0;exitDy=0;" edge="1" parent="1" source="5LjGhmarWJCnvKHFiit6-4" target="5LjGhmarWJCnvKHFiit6-32">
          <mxGeometry relative="1" as="geometry" />
        </mxCell>
        <mxCell id="5LjGhmarWJCnvKHFiit6-4" value="Portal" style="rounded=0;whiteSpace=wrap;html=1;" vertex="1" parent="1">
          <mxGeometry x="180" y="350" width="120" height="60" as="geometry" />
        </mxCell>
        <mxCell id="5LjGhmarWJCnvKHFiit6-14" style="edgeStyle=orthogonalEdgeStyle;rounded=0;orthogonalLoop=1;jettySize=auto;html=1;entryX=1;entryY=0.5;entryDx=0;entryDy=0;" edge="1" parent="1" source="5LjGhmarWJCnvKHFiit6-5" target="5LjGhmarWJCnvKHFiit6-4">
          <mxGeometry relative="1" as="geometry" />
        </mxCell>
        <mxCell id="5LjGhmarWJCnvKHFiit6-5" value="OpenApi" style="rounded=0;whiteSpace=wrap;html=1;" vertex="1" parent="1">
          <mxGeometry x="340" y="300" width="140" height="40" as="geometry" />
        </mxCell>
        <mxCell id="5LjGhmarWJCnvKHFiit6-8" value="" style="edgeStyle=orthogonalEdgeStyle;rounded=0;orthogonalLoop=1;jettySize=auto;html=1;" edge="1" parent="1" source="5LjGhmarWJCnvKHFiit6-7" target="5LjGhmarWJCnvKHFiit6-5">
          <mxGeometry relative="1" as="geometry" />
        </mxCell>
        <mxCell id="5LjGhmarWJCnvKHFiit6-7" value="Open Sdk" style="shape=umlActor;verticalLabelPosition=bottom;verticalAlign=top;html=1;outlineConnect=0;" vertex="1" parent="1">
          <mxGeometry x="395" y="140" width="30" height="60" as="geometry" />
        </mxCell>
        <mxCell id="5LjGhmarWJCnvKHFiit6-10" style="edgeStyle=orthogonalEdgeStyle;rounded=0;orthogonalLoop=1;jettySize=auto;html=1;" edge="1" parent="1" source="5LjGhmarWJCnvKHFiit6-9" target="5LjGhmarWJCnvKHFiit6-4">
          <mxGeometry relative="1" as="geometry" />
        </mxCell>
        <mxCell id="5LjGhmarWJCnvKHFiit6-9" value="控制台" style="shape=umlActor;verticalLabelPosition=bottom;verticalAlign=top;html=1;outlineConnect=0;" vertex="1" parent="1">
          <mxGeometry x="225" y="140" width="30" height="60" as="geometry" />
        </mxCell>
        <mxCell id="5LjGhmarWJCnvKHFiit6-15" value="用户" style="text;html=1;strokeColor=none;fillColor=none;align=center;verticalAlign=middle;whiteSpace=wrap;rounded=0;" vertex="1" parent="1">
          <mxGeometry x="60" y="180" width="70" height="50" as="geometry" />
        </mxCell>
        <mxCell id="5LjGhmarWJCnvKHFiit6-16" value="接入层" style="text;html=1;strokeColor=none;fillColor=none;align=center;verticalAlign=middle;whiteSpace=wrap;rounded=0;" vertex="1" parent="1">
          <mxGeometry x="60" y="330" width="70" height="50" as="geometry" />
        </mxCell>
        <mxCell id="5LjGhmarWJCnvKHFiit6-17" value="" style="endArrow=none;dashed=1;html=1;" edge="1" parent="1">
          <mxGeometry width="50" height="50" relative="1" as="geometry">
            <mxPoint x="120" y="584" as="sourcePoint" />
            <mxPoint x="650" y="584" as="targetPoint" />
          </mxGeometry>
        </mxCell>
        <mxCell id="5LjGhmarWJCnvKHFiit6-23" value="调度层" style="text;html=1;strokeColor=none;fillColor=none;align=center;verticalAlign=middle;whiteSpace=wrap;rounded=0;" vertex="1" parent="1">
          <mxGeometry x="60" y="480" width="70" height="50" as="geometry" />
        </mxCell>
        <mxCell id="5LjGhmarWJCnvKHFiit6-25" value="工作节点" style="text;html=1;strokeColor=none;fillColor=none;align=center;verticalAlign=middle;whiteSpace=wrap;rounded=0;" vertex="1" parent="1">
          <mxGeometry x="60" y="630" width="70" height="50" as="geometry" />
        </mxCell>
        <mxCell id="5LjGhmarWJCnvKHFiit6-30" style="edgeStyle=orthogonalEdgeStyle;rounded=0;orthogonalLoop=1;jettySize=auto;html=1;entryX=0.5;entryY=0;entryDx=0;entryDy=0;" edge="1" parent="1" source="5LjGhmarWJCnvKHFiit6-27" target="5LjGhmarWJCnvKHFiit6-29">
          <mxGeometry relative="1" as="geometry" />
        </mxCell>
        <mxCell id="5LjGhmarWJCnvKHFiit6-27" value="数据订阅sdk" style="shape=umlActor;verticalLabelPosition=bottom;verticalAlign=top;html=1;outlineConnect=0;" vertex="1" parent="1">
          <mxGeometry x="550" y="140" width="30" height="60" as="geometry" />
        </mxCell>
        <mxCell id="5LjGhmarWJCnvKHFiit6-43" style="edgeStyle=orthogonalEdgeStyle;rounded=0;orthogonalLoop=1;jettySize=auto;html=1;entryX=1;entryY=0.5;entryDx=0;entryDy=0;" edge="1" parent="1" source="5LjGhmarWJCnvKHFiit6-29" target="5LjGhmarWJCnvKHFiit6-42">
          <mxGeometry relative="1" as="geometry" />
        </mxCell>
        <mxCell id="5LjGhmarWJCnvKHFiit6-29" value="DProxy" style="rounded=0;whiteSpace=wrap;html=1;" vertex="1" parent="1">
          <mxGeometry x="495" y="360" width="140" height="40" as="geometry" />
        </mxCell>
        <mxCell id="5LjGhmarWJCnvKHFiit6-35" style="edgeStyle=orthogonalEdgeStyle;rounded=0;orthogonalLoop=1;jettySize=auto;html=1;exitX=0.5;exitY=1;exitDx=0;exitDy=0;entryX=0.5;entryY=0;entryDx=0;entryDy=0;" edge="1" parent="1" source="5LjGhmarWJCnvKHFiit6-32" target="5LjGhmarWJCnvKHFiit6-36">
          <mxGeometry relative="1" as="geometry">
            <mxPoint x="277.5" y="640" as="targetPoint" />
          </mxGeometry>
        </mxCell>
        <mxCell id="5LjGhmarWJCnvKHFiit6-32" value="Master" style="rounded=0;whiteSpace=wrap;html=1;" vertex="1" parent="1">
          <mxGeometry x="180" y="480" width="120" height="60" as="geometry" />
        </mxCell>
        <mxCell id="5LjGhmarWJCnvKHFiit6-36" value="Node" style="swimlane;" vertex="1" parent="1">
          <mxGeometry x="130" y="650" width="290" height="180" as="geometry" />
        </mxCell>
        <mxCell id="5LjGhmarWJCnvKHFiit6-37" value="预检查" style="rounded=1;whiteSpace=wrap;html=1;" vertex="1" parent="5LjGhmarWJCnvKHFiit6-36">
          <mxGeometry x="30" y="60" width="80" height="30" as="geometry" />
        </mxCell>
        <mxCell id="5LjGhmarWJCnvKHFiit6-39" value="Reader" style="rounded=1;whiteSpace=wrap;html=1;" vertex="1" parent="5LjGhmarWJCnvKHFiit6-36">
          <mxGeometry x="80" y="120" width="80" height="30" as="geometry" />
        </mxCell>
        <mxCell id="5LjGhmarWJCnvKHFiit6-42" value="DStore" style="rounded=1;whiteSpace=wrap;html=1;" vertex="1" parent="5LjGhmarWJCnvKHFiit6-36">
          <mxGeometry x="170" y="75" width="80" height="30" as="geometry" />
        </mxCell>
        <mxCell id="5LjGhmarWJCnvKHFiit6-40" value="Data Source" style="strokeWidth=2;html=1;shape=mxgraph.flowchart.database;whiteSpace=wrap;" vertex="1" parent="1">
          <mxGeometry x="200" y="870" width="100" height="70" as="geometry" />
        </mxCell>
        <mxCell id="5LjGhmarWJCnvKHFiit6-41" style="edgeStyle=orthogonalEdgeStyle;rounded=0;orthogonalLoop=1;jettySize=auto;html=1;" edge="1" parent="1" source="5LjGhmarWJCnvKHFiit6-39" target="5LjGhmarWJCnvKHFiit6-40">
          <mxGeometry relative="1" as="geometry" />
        </mxCell>
      </root>
    </mxGraphModel>
  </diagram>
</mxfile>
